<mxfile host="app.diagrams.net" modified="2021-09-12T10:55:43.098Z" agent="5.0 (Windows NT 10.0; Win64; x64) AppleWebKit/537.36 (KHTML, like Gecko) Chrome/93.0.4577.63 Safari/537.36" etag="cjxLAaWJBjn1CUqq8El1" version="15.1.4" type="github">
  <diagram id="V9glu1IjMEIVjZK7hwXN" name="Page-1">
    <mxGraphModel dx="865" dy="463" grid="1" gridSize="10" guides="1" tooltips="1" connect="1" arrows="1" fold="1" page="1" pageScale="1" pageWidth="827" pageHeight="1169" math="0" shadow="0">
      <root>
        <mxCell id="0" />
        <mxCell id="1" parent="0" />
        <mxCell id="LdTdw10JAKKN5Sh2-ZlI-1" value="Router" style="rounded=0;whiteSpace=wrap;html=1;fillColor=#d5e8d4;strokeColor=#82b366;" vertex="1" parent="1">
          <mxGeometry x="70" y="210" width="120" height="60" as="geometry" />
        </mxCell>
        <mxCell id="LdTdw10JAKKN5Sh2-ZlI-2" value="Middleware" style="rounded=0;whiteSpace=wrap;html=1;fillColor=#fff2cc;strokeColor=#d6b656;" vertex="1" parent="1">
          <mxGeometry x="240" y="210" width="120" height="60" as="geometry" />
        </mxCell>
        <mxCell id="LdTdw10JAKKN5Sh2-ZlI-3" value="Controller" style="rounded=0;whiteSpace=wrap;html=1;fillColor=#dae8fc;strokeColor=#6c8ebf;" vertex="1" parent="1">
          <mxGeometry x="414" y="210" width="120" height="60" as="geometry" />
        </mxCell>
        <mxCell id="LdTdw10JAKKN5Sh2-ZlI-4" value="Model" style="rounded=0;whiteSpace=wrap;html=1;fillColor=#d5e8d4;strokeColor=#82b366;" vertex="1" parent="1">
          <mxGeometry x="570" y="210" width="120" height="60" as="geometry" />
        </mxCell>
        <mxCell id="LdTdw10JAKKN5Sh2-ZlI-6" value="Database&lt;br&gt;" style="shape=cylinder3;whiteSpace=wrap;html=1;boundedLbl=1;backgroundOutline=1;size=15;fillColor=#008a00;strokeColor=#005700;fontColor=#ffffff;" vertex="1" parent="1">
          <mxGeometry x="730" y="200" width="60" height="80" as="geometry" />
        </mxCell>
        <mxCell id="LdTdw10JAKKN5Sh2-ZlI-7" value="" style="endArrow=classic;html=1;exitX=1;exitY=0.5;exitDx=0;exitDy=0;entryX=0;entryY=0.5;entryDx=0;entryDy=0;" edge="1" parent="1" source="LdTdw10JAKKN5Sh2-ZlI-1" target="LdTdw10JAKKN5Sh2-ZlI-2">
          <mxGeometry width="50" height="50" relative="1" as="geometry">
            <mxPoint x="410" y="290" as="sourcePoint" />
            <mxPoint x="460" y="240" as="targetPoint" />
          </mxGeometry>
        </mxCell>
        <mxCell id="LdTdw10JAKKN5Sh2-ZlI-8" value="" style="endArrow=classic;html=1;" edge="1" parent="1">
          <mxGeometry width="50" height="50" relative="1" as="geometry">
            <mxPoint x="410" y="260" as="sourcePoint" />
            <mxPoint x="370" y="260" as="targetPoint" />
          </mxGeometry>
        </mxCell>
        <mxCell id="LdTdw10JAKKN5Sh2-ZlI-9" value="" style="endArrow=classic;html=1;exitX=0;exitY=0.75;exitDx=0;exitDy=0;entryX=1;entryY=0.75;entryDx=0;entryDy=0;" edge="1" parent="1" source="LdTdw10JAKKN5Sh2-ZlI-2" target="LdTdw10JAKKN5Sh2-ZlI-1">
          <mxGeometry width="50" height="50" relative="1" as="geometry">
            <mxPoint x="410" y="290" as="sourcePoint" />
            <mxPoint x="460" y="240" as="targetPoint" />
          </mxGeometry>
        </mxCell>
        <mxCell id="LdTdw10JAKKN5Sh2-ZlI-10" value="" style="endArrow=classic;html=1;exitX=0;exitY=0.75;exitDx=0;exitDy=0;" edge="1" parent="1" source="LdTdw10JAKKN5Sh2-ZlI-4">
          <mxGeometry width="50" height="50" relative="1" as="geometry">
            <mxPoint x="410" y="290" as="sourcePoint" />
            <mxPoint x="540" y="255" as="targetPoint" />
          </mxGeometry>
        </mxCell>
        <mxCell id="LdTdw10JAKKN5Sh2-ZlI-11" value="" style="endArrow=classic;html=1;exitX=0;exitY=0;exitDx=0;exitDy=52.5;exitPerimeter=0;entryX=1;entryY=0.75;entryDx=0;entryDy=0;" edge="1" parent="1" source="LdTdw10JAKKN5Sh2-ZlI-6" target="LdTdw10JAKKN5Sh2-ZlI-4">
          <mxGeometry width="50" height="50" relative="1" as="geometry">
            <mxPoint x="410" y="290" as="sourcePoint" />
            <mxPoint x="460" y="240" as="targetPoint" />
          </mxGeometry>
        </mxCell>
        <mxCell id="LdTdw10JAKKN5Sh2-ZlI-12" value="" style="endArrow=classic;html=1;exitX=1;exitY=0.5;exitDx=0;exitDy=0;entryX=0;entryY=0.5;entryDx=0;entryDy=0;entryPerimeter=0;" edge="1" parent="1" source="LdTdw10JAKKN5Sh2-ZlI-4" target="LdTdw10JAKKN5Sh2-ZlI-6">
          <mxGeometry width="50" height="50" relative="1" as="geometry">
            <mxPoint x="410" y="290" as="sourcePoint" />
            <mxPoint x="460" y="240" as="targetPoint" />
          </mxGeometry>
        </mxCell>
        <mxCell id="LdTdw10JAKKN5Sh2-ZlI-13" value="" style="endArrow=classic;html=1;entryX=0;entryY=0.5;entryDx=0;entryDy=0;exitX=1;exitY=0.5;exitDx=0;exitDy=0;" edge="1" parent="1" source="LdTdw10JAKKN5Sh2-ZlI-3" target="LdTdw10JAKKN5Sh2-ZlI-4">
          <mxGeometry width="50" height="50" relative="1" as="geometry">
            <mxPoint x="410" y="290" as="sourcePoint" />
            <mxPoint x="460" y="240" as="targetPoint" />
          </mxGeometry>
        </mxCell>
        <mxCell id="LdTdw10JAKKN5Sh2-ZlI-14" value="" style="endArrow=classic;html=1;exitX=1;exitY=0.5;exitDx=0;exitDy=0;" edge="1" parent="1" source="LdTdw10JAKKN5Sh2-ZlI-2">
          <mxGeometry width="50" height="50" relative="1" as="geometry">
            <mxPoint x="410" y="290" as="sourcePoint" />
            <mxPoint x="410" y="240" as="targetPoint" />
          </mxGeometry>
        </mxCell>
        <mxCell id="LdTdw10JAKKN5Sh2-ZlI-15" value="/register&lt;br&gt;/login&lt;br&gt;/sensor&lt;br&gt;/sensorOne&lt;br&gt;/device&lt;br&gt;" style="text;html=1;strokeColor=none;fillColor=none;align=center;verticalAlign=middle;whiteSpace=wrap;rounded=0;" vertex="1" parent="1">
          <mxGeometry x="60" y="270" width="130" height="90" as="geometry" />
        </mxCell>
        <mxCell id="LdTdw10JAKKN5Sh2-ZlI-17" value="AuthenticationControllerPolicy.js&lt;br&gt;isAuthenticated.js&lt;br&gt;" style="text;html=1;strokeColor=none;fillColor=none;align=center;verticalAlign=middle;whiteSpace=wrap;rounded=0;" vertex="1" parent="1">
          <mxGeometry x="200" y="160" width="200" height="40" as="geometry" />
        </mxCell>
        <mxCell id="LdTdw10JAKKN5Sh2-ZlI-18" value="AuthencationController&lt;br&gt;DeviceController&lt;br&gt;SensorController&lt;br&gt;MqttClientController" style="text;html=1;strokeColor=none;fillColor=none;align=center;verticalAlign=middle;whiteSpace=wrap;rounded=0;" vertex="1" parent="1">
          <mxGeometry x="389" y="262.5" width="170" height="105" as="geometry" />
        </mxCell>
        <mxCell id="LdTdw10JAKKN5Sh2-ZlI-19" value="User&lt;br&gt;Sensor" style="text;html=1;strokeColor=none;fillColor=none;align=center;verticalAlign=middle;whiteSpace=wrap;rounded=0;" vertex="1" parent="1">
          <mxGeometry x="590" y="160" width="80" height="30" as="geometry" />
        </mxCell>
      </root>
    </mxGraphModel>
  </diagram>
</mxfile>
